<svg width="50" height="50" viewBox="0 0 50 50" fill="none" xmlns="http://www.w3.org/2000/svg">
<path d="M8.51791 40.8765C9.26781 40.1266 9.3141 38.9324 8.63827 38.1177C2.77798 31.0261 2.66689 20.8053 8.37904 13.5934C9.0271 12.7879 8.97155 11.6214 8.24018 10.8808L8.17537 10.816C7.36993 10.0198 6.07381 10.0198 5.27763 10.8252C5.22208 10.8808 5.16653 10.9363 5.12025 11.0011C-1.81396 19.7684 -1.67509 32.2018 5.45353 40.8117C6.17565 41.682 7.46251 41.7931 8.33276 41.071C8.37904 41.0339 8.42533 40.9876 8.47162 40.9413L8.51791 40.8765Z" fill="#FDBE16"/>
<path d="M39.0136 10.6678C38.273 11.4177 38.2174 12.6027 38.884 13.4082C44.7906 20.6849 44.6795 31.1464 38.6155 38.2936C37.9212 39.1083 37.9675 40.3118 38.7173 41.0709L38.7729 41.1265C39.5691 41.9227 40.8652 41.9227 41.6614 41.1265C41.6984 41.0895 41.7354 41.0524 41.7632 41.0154C49.1418 32.3129 49.2714 19.5925 42.078 10.7419C41.3651 9.87165 40.0783 9.7513 39.1988 10.4642C39.1432 10.5105 39.0969 10.5567 39.0506 10.603L39.0136 10.6678Z" fill="#FDBE16"/>
<path d="M13.1839 15.8245L13.1376 15.7782C12.3414 14.982 11.0453 14.9728 10.2491 15.7782C10.1658 15.8615 10.0918 15.9449 10.027 16.0374C5.82385 21.9811 5.9442 29.9614 10.3232 35.7754C10.999 36.6827 12.2859 36.8678 13.1932 36.1827C13.2672 36.1272 13.3413 36.0624 13.4061 35.9976L13.4524 35.9513C14.1745 35.2292 14.2578 34.0812 13.6376 33.2665C10.3602 28.9153 10.2584 22.9439 13.3969 18.4815C13.9801 17.6483 13.8875 16.5374 13.1839 15.8245Z" fill="#FDBE16"/>
<path d="M36.8843 36.0254C41.5225 30.128 41.6614 21.8514 37.2176 15.7967C36.551 14.8802 35.2734 14.6858 34.3569 15.3523C34.2736 15.4172 34.1902 15.482 34.1162 15.556L34.0699 15.6023C33.357 16.3152 33.2737 17.4539 33.8662 18.2686C37.1898 22.805 37.088 29.0078 33.6255 33.4331C32.9867 34.2478 33.0608 35.4143 33.7921 36.1457L33.8384 36.192C34.6346 36.9882 35.9215 36.9974 36.7269 36.2013C36.7825 36.1457 36.8287 36.0902 36.8843 36.0254Z" fill="#FDBE16"/>
<path d="M32.0517 30.8502C33.894 27.8691 34.0051 24.1382 32.3479 21.0553C31.8109 20.0647 30.5704 19.6943 29.5705 20.2313C29.3946 20.3239 29.2372 20.4442 29.0984 20.5831L29.0428 20.6386C28.404 21.2774 28.2559 22.2588 28.6818 23.055C29.6261 24.8232 29.552 26.9618 28.4966 28.6745C28.0059 29.48 28.1263 30.5169 28.8021 31.1835L28.8577 31.239C29.6538 32.0352 30.95 32.0352 31.7554 31.239C31.8665 31.1094 31.9683 30.9798 32.0517 30.8502Z" fill="#FDBE16"/>
<path d="M18.2295 20.8701L18.174 20.8146C17.3778 20.0184 16.0817 20.0091 15.2855 20.8053C15.1281 20.9627 14.9985 21.1386 14.9059 21.333C13.4524 24.2678 13.5635 27.7395 15.1929 30.5724C15.7669 31.5445 17.0167 31.8685 17.9888 31.2946C18.1369 31.202 18.2758 31.1001 18.4054 30.9705L18.4609 30.915C19.1183 30.2669 19.2479 29.2578 18.7942 28.4616C17.8684 26.8415 17.8129 24.8603 18.6368 23.1846C19.0072 22.4254 18.8498 21.4904 18.2295 20.8701Z" fill="#FDBE16"/>
<path d="M23.701 28.656C25.3372 28.656 26.6636 27.3297 26.6636 25.6935C26.6636 24.0573 25.3372 22.7309 23.701 22.7309C22.0648 22.7309 20.7385 24.0573 20.7385 25.6935C20.7385 27.3297 22.0648 28.656 23.701 28.656Z" fill="#FDBE16"/>
</svg>
